<svg viewBox="0 0 74.296 14.382" width="878" height="170" xmlns="http://www.w3.org/2000/svg">
	<path d="M5.987 14.214C3.38 13.725 1.321 11.66.421 9.409c0-.186.022-.19.953-.189.524.001.994.03 1.044.064s.219.301.373.593c.348.658 1.25 1.53 1.948 1.882 2.479 1.251 5.52.117 6.578-2.453.37-.903.264-1.018-.942-1.018h-.81l-.295.411c-1.057 1.47-3.124 1.479-4.214.017l-.32-.428H2.473L.21 8.285C-.086 7.727.055 7.002.083 6.468c.18-.805.464-1.667.757-2.403C1.7 2.354 3.296 1.011 5.078.5c2.444-.703 4.253-.193 6.307 1.052.694.496 1.407 1.286 1.874 2.079.376.638.699 1.478.604 1.572-.091.092-1.051.144-1.534.084l-.474-.06-.277-.522c-.838-1.582-2.76-2.63-4.539-2.475-1.158.101-2.325.664-3.094 1.491-.458.493-1.007 1.447-1.109 1.924-.098.463.025.526 1.026.526.812 0 .89-.015 1.027-.19.753-.974 1.397-1.295 2.475-1.232.914.052 1.256.26 2.053 1.24.144.177.199.181 2.424.181h2.277l.051.191c.082.306.061 1.513-.036 2.059-.426 2.407-2.033 4.433-4.246 5.355-1.35.573-3.04.553-3.9.439zm54.23-5.82l.022-3.62.348-.025c.277-.02.404.02.62.202l.27.227.515-.265c1.272-.656 2.32-.058 2.612 1.491.244 1.295-.147 2.649-.922 3.192-.337.237-.42.257-1.016.246a8.641 8.641 0 0 1-.818-.042c-.16-.029-.173.03-.222.943-.029.536-.057.98-.063.989-.165.223-.335.281-.823.281h-.545zm2.584.296c.283-.303.376-.647.38-1.418.007-1.368-.532-1.885-1.32-1.266l-.225.177v2.452l.275.12c.4.173.687.152.89-.065zm-5.873 1.208a.857.857 0 0 1-.306-1.363c.382-.428 1.14-.346 1.364.147.228.499.032 1.046-.432 1.208-.303.105-.383.106-.626.008zm14.403.03c-.806-.204-1.2-.501-1.55-1.167-.384-1.023-.255-1.841-.031-2.865.258-.522.844-1.034 1.323-1.155.786-.198 1.634-.058 2.183.36.944 1.206.875 2.26.675 3.397-.126.471-.62 1.034-1.09 1.243-.359.16-1.206.264-1.51.187zm.71-1.057c.44-.154.558-.482.559-1.557 0-1.039-.145-1.452-.563-1.6-.565-.198-.954.218-1.053 1.127-.11 1.027.131 1.851.6 2.044.262.052.327-.01.456-.014zm-5.89.966c-.18-.035-.183-.067-.21-1.872-.027-1.694-.044-1.866-.216-2.212-.179-.356-.181-.388-.05-.663.075-.16.186-.309.247-.332.199-.076.674.14.965.44.157.163.328.295.38.295s.179-.113.282-.252c.266-.36.628-.523 1.098-.493.365.024.4.045.425.261.015.13-.036.424-.112.655l-.14.419-.424-.01c-.465-.01-.794.167-.98.529-.071.138-.105.68-.106 1.696V9.79l-.265.053a2.325 2.325 0 0 1-.893-.006z" fill="#eb6126"/>
	<path d="M17.241 9.7c-.274-.088-.53-.192-.57-.232-.09-.09.06-.652.208-.775.08-.067.233-.044.57.086.867.334 1.687.195 1.687-.285 0-.321-.173-.467-.923-.778-.419-.173-.864-.396-.988-.493-.666-.525-.58-1.83.153-2.326.38-.257 1.087-.395 1.684-.327.663.075 1.343.284 1.399.43.052.137-.114.693-.229.764-.042.026-.329-.03-.637-.126-.715-.22-1.088-.222-1.305-.004-.36.359-.18.65.571.932 1.332.497 1.763.967 1.7 1.85-.046.626-.293.982-.866 1.249-.56.26-1.697.276-2.454.034zm5.62.037c-.657-.296-1.03-.85-1.19-1.773-.188-1.075.082-2.303.619-2.812.476-.451.796-.57 1.545-.569.791 0 1.225.18 1.634.677.335.406.455.871.424 1.644l-.026.635-1.312.042c-.722.024-1.36.074-1.418.111-.296.192.062.926.552 1.134.322.136.368.133 1.632-.116.172-.034.237.003.318.18.184.406.13.52-.343.729-.583.256-1.976.324-2.435.118zm1.772-3.16c.123-.229-.04-.731-.304-.94-.487-.382-1.14-.104-1.26.537-.097.522-.045.56.76.56.615 0 .732-.022.804-.157zm6.132 3.194c-.393-.108-.453-.385-.453-2.08 0-1.45-.003-1.475-.208-1.68-.114-.114-.266-.208-.337-.208-.24 0-.814.274-.897.428-.045.085-.082.916-.082 1.853v1.699h-1.355V4.618h.345c.406 0 .648.11.892.408l.18.217.433-.278c.322-.206.56-.289.922-.318.625-.052 1 .14 1.27.65.177.336.192.474.197 1.81.005 1.368.061 2.02.204 2.357.046.108.01.166-.137.22-.358.132-.702.163-.974.087zm13.8.033a.717.717 0 0 1-.338-.204c-.139-.153-.16-.353-.18-1.71-.014-.845-.042-1.617-.063-1.716-.057-.266-.468-.41-.826-.292a1.52 1.52 0 0 0-.471.265c-.176.164-.183.236-.183 1.903v1.733h-1.355V4.597l.478.04c.413.034.51.077.7.31l.221.272.577-.3c.95-.496 1.676-.365 2.086.376.201.363.214.468.261 2.202.028 1 .079 1.884.114 1.962.043.096.014.167-.091.22-.193.1-.689.166-.93.125zm3.2-.155c-.817-.413-1.178-1.31-1.091-2.71.056-.903.394-1.667.888-2.01.827-.571 2.254-.467 2.87.21.43.473.644 1.385.503 2.138l-.057.304-1.203.001c-.661.001-1.288.024-1.393.053-.386.103-.131.935.358 1.167.352.167.638.169 1.258.007.636-.165.624-.167.774.123.201.39.16.478-.315.687-.341.15-.642.204-1.292.228-.786.03-.878.016-1.3-.197zm1.887-3.371c-.005-.343-.046-.45-.238-.614-.481-.414-1.192-.142-1.293.495-.088.552-.04.585.795.558l.742-.025zm-15.334 3.34c-.458-.28-.488-.406-.518-2.206-.03-1.828-.042-1.863-.583-1.863-.28 0-.28 0-.28-.418v-.419l.804-.052.057-.632c.07-.787.209-.934.884-.934h.456v.703c0 .433.039.741.102.804.059.06.342.102.677.102h.576v.846h-.576c-.335 0-.618.043-.677.102-.124.124-.143 2.488-.023 2.803.084.223.465.397.865.397.232 0 .241.016.241.413 0 .395-.011.415-.264.466-.576.115-1.462.058-1.74-.112zm3.868-2.375v-2.54h.537c.757 0 .836.103.85 1.119.005.432 0 1.5-.011 2.373l-.021 1.588h-1.355zM52.7 9.663c-.487-.212-.501-.331-.501-4.071V2.205c.598-.154.97.18 1.312.373v2.906c0 3.227-.002 3.216.548 3.319.293.055.299.064.299.466 0 .297-.038.425-.134.462-.242.093-1.258.047-1.524-.068z" fill="#3c433d"/>
	<text x="54.709" y="4.701" fill="#3c433d" font-family="sans-serif" font-size="2">®</text>
</svg>
